{
	"asset":{
		"generator":"Khronos glTF Blender I/O v4.5.47",
		"version":"2.0"
	},
	"scene":0,
	"scenes":[
		{
			"name":"Scene",
			"nodes":[
				0
			]
		}
	],
	"nodes":[
		{
			"mesh":0,
			"name":"Suzanne",
			"translation":[
				0,
				1,
				0
			]
		}
	],
	"materials":[
		{
			"doubleSided":true,
			"name":"SuzanneMaterial",
			"pbrMetallicRoughness":{
				"baseColorFactor":[
					0.8002041578292847,
					0.03843916207551956,
					0.46332842111587524,
					1
				],
				"metallicFactor":0,
				"roughnessFactor":0.5
			}
		}
	],
	"meshes":[
		{
			"name":"Suzanne",
			"primitives":[
				{
					"attributes":{
						"POSITION":0,
						"NORMAL":1,
						"TEXCOORD_0":2
					},
					"indices":3,
					"material":0
				}
			]
		}
	],
	"accessors":[
		{
			"bufferView":0,
			"componentType":5126,
			"count":8153,
			"max":[
				1.328185796737671,
				0.9392362236976624,
				0.8224414587020874
			],
			"min":[
				-1.328185796737671,
				-0.971822202205658,
				-0.7782661318778992
			],
			"type":"VEC3"
		},
		{
			"bufferView":1,
			"componentType":5126,
			"count":8153,
			"type":"VEC3"
		},
		{
			"bufferView":2,
			"componentType":5126,
			"count":8153,
			"type":"VEC2"
		},
		{
			"bufferView":3,
			"componentType":5123,
			"count":47232,
			"type":"SCALAR"
		}
	],
	"bufferViews":[
		{
			"buffer":0,
			"byteLength":97836,
			"byteOffset":0,
			"target":34962
		},
		{
			"buffer":0,
			"byteLength":97836,
			"byteOffset":97836,
			"target":34962
		},
		{
			"buffer":0,
			"byteLength":65224,
			"byteOffset":195672,
			"target":34962
		},
		{
			"buffer":0,
			"byteLength":94464,
			"byteOffset":260896,
			"target":34963
		}
	],
	"buffers":[
		{
			"byteLength":355360,
			"uri":"suzanne.bin"
		}
	]
}
